<?xml version="1.0" encoding="utf-8"?>
<!-- Generator: Adobe Illustrator 19.0.1, SVG Export Plug-In . SVG Version: 6.00 Build 0)  -->
<svg version="1.1" id="Layer_1" xmlns="http://www.w3.org/2000/svg" xmlns:xlink="http://www.w3.org/1999/xlink" x="0px" y="0px"
	 viewBox="0 0 212 190" style="enable-background:new 0 0 212 190;" xml:space="preserve">
<style type="text/css">
	.st0{fill:url(#Large_1_);}
	.st1{fill:url(#Large_Top_1_);}
	.st2{fill:url(#Small_1_);}
	.st3{fill:url(#Small_Top_1_);}
	.st4{fill:#FFFFFF;}
</style>
<g id="Shapes">
	
		<linearGradient id="Large_1_" gradientUnits="userSpaceOnUse" x1="106.1317" y1="834.9066" x2="106.1317" y2="1022.2953" gradientTransform="matrix(1 0 0 -1 0 1024)">
		<stop  offset="0" style="stop-color:#2D2A70"/>
		<stop  offset="0.646" style="stop-color:#3F4C94"/>
	</linearGradient>
	<path id="Large" class="st0" d="M16.2,114.8c8,8.7,17.4,15.8,27.3,22.2c17,10.9,34,21.7,51.1,32.4c10.2,6.4,20.7,12,32.2,15.8
		c8.4,2.8,17,4.5,25.9,3.7c7.1-0.7,13.6-3,19.5-7.1c6.2-4.3,10.9-10,14.8-16.4c5.2-8.4,8.8-17.6,11.7-27c6-19.4,9.1-39.3,11.3-59.4
		c0.9-8,1.3-16,0.8-24c-0.4-7.2-1.5-14.2-3.6-21C202.6,19.3,193,9.6,178.4,4.8c-5.5-1.8-18.1-3.3-23.9-3.1c-2.5,0-5-0.1-7.5,0
		c-6.8,0.3-13.6,0.7-20.4,1.2c-6,0.4-11.9,1-17.9,1.6c-4.4,0.4-8.9,1-13.3,1.5C87,7,78.8,8.6,70.6,10.6
		c-13.3,3.3-26.1,7.8-37.8,15.3c-6.8,4.4-13.2,9.3-18.2,15.7C6.5,52.2,2.1,64.2,1.2,77.6c-0.3,5,0.3,10,1.7,14.9
		C5.4,101,10.2,108.3,16.2,114.8z"/>
	
		<linearGradient id="Large_Top_1_" gradientUnits="userSpaceOnUse" x1="196.5486" y1="1001.4686" x2="170.4699" y2="989.1917" gradientTransform="matrix(1 0 0 -1 0 1024)">
		<stop  offset="0" style="stop-color:#1D73BA"/>
		<stop  offset="1" style="stop-color:#1E77BD"/>
	</linearGradient>
	<path id="Large_Top" class="st1" d="M5.8,88.3c22.8,13.7,146.2,39,158.4,13.9c1.1-2.2,6.6-16.2,12-17.1c2.4-0.4,3-0.2,4.9-0.1
		c2.2,0.2,3.5,0.3,4.7,0.4c2.4,0.2,4.8,0.7,5.4,0.8c1.8,0.4,2.6,0.5,4.8,1.2c4.5,1.4,6.8,2.2,7.5,2.4c2.2,0.7,3.9,1.3,5.3,1.7
		c0.6-4.2,1.1-8.3,1.5-12.5c0.9-8,1.3-16,0.8-24c-0.4-7.2-1.5-14.2-3.6-21c-4.7-14.6-14.3-24.3-28.9-29.1
		c-5.5-1.8-18.1-3.3-23.9-3.1c-2.5,0-5-0.1-7.5,0c-6.8,0.3-13.6,0.7-20.4,1.2c-6,0.4-11.9,1-17.9,1.6c-4.4,0.4-8.9,1-13.3,1.5
		c-8.4,1-16.6,2.6-24.8,4.5c-13.3,3.2-26.1,7.8-37.7,15.3c-6.8,4.4-13.2,9.3-18.2,15.7C6.5,52.2,2.1,64.2,1.2,77.6
		C1,80.4,1.1,83.2,1.6,86C3.3,86.7,5.1,87.9,5.8,88.3z"/>
	
		<linearGradient id="Small_1_" gradientUnits="userSpaceOnUse" x1="7.0671" y1="939.0668" x2="142.0154" y2="939.0668" gradientTransform="matrix(1 0 0 -1 0 1024)">
		<stop  offset="0" style="stop-color:#2E3284"/>
		<stop  offset="1" style="stop-color:#265BA7"/>
	</linearGradient>
	<path id="Small" class="st2" d="M126.8,10.3c2.9,0,3.6,0,6.6,0c0.1,0,1.3,0.1,1.4,0.1c1.6,0.1,3.2,0.2,4.8,0.4
		c2.4,0.2,4.8,0.6,7.2,0.9c4.1,0.7,8,2,11.6,3.8c4.2,2.1,7.9,5,10.9,8.5c2.9,3.4,4.9,7.3,6.4,11.5c1.3,3.7,2.2,7.6,2.7,11.5
		c0.4,2.9,0.7,5.8,0.7,8.8c0,0.1,0,0.2,0.1,0.4c0,1.8,0,3.6,0,5.5c0,0.1-0.1,0.3-0.1,0.4c0,1,0,1.9-0.1,2.9
		c-0.1,2.4-0.3,4.9-0.6,7.3c-0.4,2.9-0.7,5.8-1.1,8.6c-0.4,2.7-0.8,5.5-1.2,8.2c-0.6,3.4-1.2,6.8-1.9,10.2c-1,5.1-2.8,10.1-4.2,15.1
		c-1.4,4.2-4.2,9.8-6.1,14.4c-2,5-5.1,8.2-8.1,12.6c-2.3,3.5-4.7,5.3-7.9,8c-3.2,2.7-7.2,5.4-11.2,6.8c-3.4,1.2-4.6,1.6-8.2,2.4
		c-1.8,0.5-6.4,1.1-7.4,1c-2.8,0.1-4.9-0.2-7.6-0.4c-5.8-0.7-13.1-2.2-18.8-4.9c-4.4-2.1-10.9-4.5-15-7.1
		c-12.6-7.7-25.3-15.4-37.9-23.1c-4-2.4-9.6-5.2-13.4-7.8c-5.6-3.8-10.9-6.7-15.7-11.5c-2-2-3.7-4.9-5.9-8.3
		C4.9,93.8,3.4,89,2.7,84.8c-0.6-3.3-0.4-8.5-0.4-8.8c0-1.1,0.4-5.3,0.4-5.6c0.1-2.1,0.8-3.9,1.2-6c1.1-5.8,3.8-11.2,6.9-16.4
		c2.9-4.8,6.7-9.8,11.1-13.4c2.7-2.2,4.5-3.9,7.5-5.7c6.4-4.3,12.6-7.3,20.4-9.5c6-2,11.9-3.3,18.2-4.5c2.9-0.6,7.1-0.9,9.9-1.3
		c2.4-0.4,4.1-0.4,6.6-0.7c1.6-0.2,3.2-0.3,4.8-0.4c1.6-0.2,3-0.2,4.5-0.3c1.4-0.1,2.9-0.3,4.3-0.4c1.8-0.2,3.5,0,5.3-0.2
		c1.8-0.1,3.5-0.3,5.3-0.4c2.2-0.2,4.5-0.3,6.7-0.4c1.8-0.1,3.7-0.2,5.5-0.3c1.3-0.1,2.7-0.1,4-0.2
		C125.2,10.4,126.6,10.3,126.8,10.3z"/>
	
		<linearGradient id="Small_Top_1_" gradientUnits="userSpaceOnUse" x1="2.3145" y1="971.2894" x2="179.0038" y2="971.2894" gradientTransform="matrix(1 0 0 -1 0 1024)">
		<stop  offset="0" style="stop-color:#2F2F80"/>
		<stop  offset="0.1215" style="stop-color:#2F3583"/>
		<stop  offset="0.3323" style="stop-color:#2E458E"/>
		<stop  offset="0.6071" style="stop-color:#2C5EA1"/>
		<stop  offset="0.9321" style="stop-color:#2780C0"/>
		<stop  offset="1" style="stop-color:#2289CA"/>
	</linearGradient>
	<path id="Small_Top" class="st3" d="M2.9,85.5c71.6,18.1,141.4,6.8,173.7-0.5c0.2-1.4,0.4-2.8,0.6-4.2c0.4-2.9,0.7-5.8,1.1-8.6
		c0.3-2.4,0.5-4.9,0.6-7.3c0-1,0.1-1.9,0.1-2.9c0-0.1,0-0.3,0.1-0.4c0-1.8,0-3.6,0-5.5c0-0.1-0.1-0.2-0.1-0.4c0-2.9-0.3-5.9-0.7-8.8
		c-0.5-3.9-1.4-7.8-2.7-11.5c-1.5-4.2-3.5-8-6.4-11.5c-3-3.6-6.6-6.4-10.9-8.5c-3.7-1.9-7.5-3.2-11.6-3.8c-2.4-0.4-4.8-0.7-7.2-0.9
		c-1.6-0.1-3.2-0.2-4.8-0.4c-0.1,0-1.3,0-1.4-0.1c-2.9,0-3.6,0-6.6,0c-0.2,0-1.7,0.1-1.9,0.1c-1.3,0.1-2.7,0.1-4,0.2
		c-1.8,0.1-3.7,0.2-5.5,0.3c-2.2,0.1-4.5,0.3-6.7,0.4c-1.8,0.1-3.5,0.2-5.3,0.4c-1.9,0.2-3.5,0-5.3,0.2c-1.4,0.1-2.9,0.3-4.3,0.4
		c-1.6,0.2-3,0.2-4.5,0.3c-1.6,0.2-3.2,0.2-4.8,0.4c-2.4,0.3-4.1,0.3-6.6,0.7C75,14.1,70.8,14.5,68,15c-6.2,1.2-12.2,2.5-18.2,4.5
		c-7.8,2.2-14,5.2-20.4,9.5c-2.9,1.8-4.8,3.5-7.5,5.7c-4.4,3.5-8.2,8.6-11.1,13.4C7.7,53.2,5.1,58.6,4,64.4c-0.4,2.1-1.1,3.9-1.2,6
		c0,0.3-0.4,4.5-0.4,5.6c0.1,0.3-0.1,5.5,0.4,8.8C2.8,85,2.8,85.2,2.9,85.5z"/>
</g>
<g id="NYC_Letters">
	<path id="C" class="st4" d="M122.5,71.6c0.2-0.3,0.5-0.6,0.8-1.1c-0.6,0-0.9-0.1-1.3,0c-3.6,0-7.2,0-10.8,0c-0.8,0-1.3,0.2-1.8,0.9
		c-2.3,3.1-4.7,6.1-7,9.1c-0.8,1-1.6,2-2.4,3c-3.4-4.1-6.6-8.1-9.8-12.1c-0.5-0.6-1-0.9-1.8-0.9c-6.7,0-13.5,0-20.2,0
		c-0.4,0-0.8,0-1.2,0c0,8.2,0,16.3,0,24.7c-0.5-0.5-1-0.7-1.3-1.1C60.5,86.6,55.2,79,49.9,71.4c-0.4-0.7-0.9-0.9-1.7-0.9
		c-5.1,0-10.2,0-15.3,0c-0.4,0-0.7,0-1.1,0.1c0,0.3-0.1,0.5-0.1,0.7c0,10.3,0,20.7,0,31c0,0.7,0.2,1,0.9,1c2.9,0,5.7,0,8.5,0
		c0.2,0,0.5-0.1,0.7-0.1c0-8.2,0-16.2,0-24.3c0.1-0.1,0.2-0.2,0.2-0.2c0.4,0.4,0.9,0.7,1.1,1.1c5.3,7.5,10.6,15.1,15.9,22.6
		c0.5,0.7,1,1,1.8,1c5,0,10,0,14.9,0c1.2,0,1.4-0.4,1.4-1.5c0-9.5,0-19.1,0-28.6c0-0.4,0-0.8,0-1.3c0.3,0.2,0.4,0.2,0.4,0.2
		c5.6,6.3,11.2,12.6,16.7,18.9c0.3,0.4,0.5,1,0.5,1.5c0.1,3.2,0.1,6.4,0,9.5c0,0.9,0.2,1.1,1.1,1.1c2-0.1,3.9,0,5.8,0
		c1.1,0,2.3,0,3.5,0c0-0.5,0-0.9,0-1.3c0-2.9,0.1-5.8,0-8.8c0-1.1,0.3-1.8,0.9-2.6C111.7,84.3,117.1,78,122.5,71.6z"/>
	<path id="NY" class="st4" d="M154.2,90.5c-1.1,0-1.6,0.2-1.6,1.4c-0.1,2.4-1,3.2-3.5,3.3c-3.5,0.1-6.9,0.2-10.4,0.2
		c-1.6,0-3.1-0.2-4.7-0.4c-1.3-0.2-2.2-1-2.4-2.4c-0.5-3.5-0.6-7.1,0-10.6c0.3-2.2,1.3-3.2,3.5-3.3c4.5-0.1,9.1-0.1,13.6,0
		c2.7,0.1,2.8,0.4,3.3,3c0,0.3,0.6,0.7,0.9,0.7c2.9,0,5.8,0,8.6,0c0.7,0,0.9-0.3,0.9-0.9c0-1.2,0-2.3,0-3.5
		c-0.3-4.4-2.1-6.6-6.4-7.5c-1.8-0.4-3.7-0.5-5.5-0.6c-3.9-0.1-7.7-0.1-11.6,0c-3.4,0.1-6.8,0.2-10.2,0.7c-4.8,0.6-7,3-7.4,7.8
		c-0.4,5.8-0.5,11.7,0.1,17.5c0.4,3.6,2.4,5.9,5.9,6.7c1.6,0.4,3.2,0.6,4.9,0.7c5.4,0.2,10.8,0.3,16.2,0.2c3.2-0.1,6.5-0.5,9.7-1.1
		c2.6-0.5,4.2-2.4,4.6-5c0.3-2.3,0.4-4.6,0.6-7.1C159.9,90.5,157.1,90.5,154.2,90.5z"/>
</g>
</svg>
