<?xml version="1.0" encoding="utf-8"?>
<!-- Generator: Adobe Illustrator 19.0.1, SVG Export Plug-In . SVG Version: 6.00 Build 0)  -->
<svg version="1.1" id="Layer_1" xmlns:sketch="http://www.bohemiancoding.com/sketch/ns"
	 xmlns="http://www.w3.org/2000/svg" xmlns:xlink="http://www.w3.org/1999/xlink" x="0px" y="0px" viewBox="-238 416 546 194"
	 style="enable-background:new -238 416 546 194;" xml:space="preserve">
<style type="text/css">
	.st0{display:none;}
	.st1{display:inline;}
	.st2{fill:#8C929D;}
	.st3{fill:#E24329;}
	.st4{fill:#FC6D26;}
	.st5{fill:#FCA326;}
	.st6{fill:url(#Large_1_);}
	.st7{fill:url(#Large_Top_1_);}
	.st8{fill:url(#Small_1_);}
	.st9{fill:url(#Small_Top_1_);}
	.st10{fill:#FFFFFF;}
	.st11{font-family:'AvenirNext-Medium';}
	.st12{font-size:114px;}
</style>
<title>Fill 1 + Group 24</title>
<desc>Created with Sketch.</desc>
<g id="Page-1" sketch:type="MSPage" class="st0">
	<g id="Fill-1-_x2B_-Group-24" sketch:type="MSLayerGroup" class="st1">
		<g id="Group-24" sketch:type="MSShapeGroup">
			<path id="Fill-2" class="st2" d="M78.8,481.3C63.5,481.3,54,493.4,54,513c0,19.6,9.5,31.7,24.8,31.7c5.7,0,11.1-1.6,15.4-4.7
				l0.2-0.1v-22h-22v-7.8h31v32.7c-6.6,6.3-15.1,9.7-24.6,9.7C58.3,552.5,45,537,45,513c0-24,13.3-39.5,33.8-39.5
				c10,0,18.4,3.6,24.4,10.6l-6,5C92.7,483.9,86.5,481.3,78.8,481.3L78.8,481.3z M251.9,551.3h-6.9l-2.3-6.4l-0.6,0.5
				c-0.1,0.1-7.8,7-17.6,7c-9.9,0-17-6.6-17-15.6c0-13.1,11.3-15.8,20.7-15.8c7.4,0,14,1.7,14,1.7l0.6,0.2v-1.6
				c0-7.1-4.4-10.7-13.2-10.7c-5.3,0-10.9,1.3-16.2,3.8l-3.6-6.2c4.7-3.1,11.9-6.6,19.9-6.6c13.9,0,22.2,7.6,22.2,20.2V551.3z
				 M232.7,527.8c-10.6,0-16.2,3.1-16.2,8.9c0,4.1,3.1,6.6,8,6.6c8.1,0,15.3-3.3,18.2-5.3l0.2-0.1v-9.2l-0.4-0.1
				C242.4,528.5,237.9,527.8,232.7,527.8L232.7,527.8z M202.5,543.5v7.8h-30v-74h9v66.2H202.5z M282.9,552.5c-5.8,0-12.3-0.8-19-2.4
				v-72.9h9v28.1l0.8-0.5c0,0,5.1-3.2,12-3.2c1.4,0,2.8,0.1,4.1,0.4c11.3,2.3,18.1,11.5,18.1,24.5
				C307.9,541.8,297.6,552.5,282.9,552.5L282.9,552.5z M283.9,510.4c-3.6,0-7.3,1.2-10.8,3.5l-0.2,0.1v29.8l0.4,0.1
				c3.4,0.5,6.6,0.7,9.6,0.7c9.4,0,15.9-7.5,15.9-18.3C298.9,516.2,293.4,510.4,283.9,510.4L283.9,510.4z M160.5,502.3v7.8h-15V533
				c0,2.8,1.1,5.4,3.1,7.4c2,2,4.6,3.1,7.4,3.1h4.5v7.8H156c-10.8,0-19.5-8.7-19.5-19.5v-54.5h9v25H160.5z M115.4,482.3h9v9h-9
				V482.3z M115.4,502.3h9v49h-9V502.3z"/>
			<g id="Group">
				<path id="Fill-4" class="st3" d="M-132.9,609.7L-132.9,609.7l38.6-118.9h-77.3L-132.9,609.7L-132.9,609.7z"/>
				<path id="Fill-6" class="st3" d="M-238,416"/>
				<path id="Fill-8" class="st4" d="M-132.9,609.7l-38.6-118.9h-54.2L-132.9,609.7z"/>
				<path id="Fill-10" class="st4" d="M-238,416"/>
				<path id="Fill-12" class="st5" d="M-225.7,490.7L-225.7,490.7l-11.7,36.1c-1.1,3.3,0.1,6.9,2.9,8.9l101.6,73.8L-225.7,490.7z"/>
				<path id="Fill-14" class="st5" d="M-238,416"/>
				<path id="Fill-16" class="st3" d="M-225.7,490.7h54.2l-23.3-71.6c-1.2-3.7-6.4-3.7-7.6,0L-225.7,490.7z"/>
				<path id="Fill-18" class="st4" d="M-132.9,609.7l38.6-118.9h54.2L-132.9,609.7z"/>
				<path id="Fill-20" class="st5" d="M-40.1,490.7L-40.1,490.7l11.7,36.1c1.1,3.3-0.1,6.9-2.9,8.9l-101.6,73.8L-40.1,490.7z"/>
				<path id="Fill-22" class="st3" d="M-40.1,490.7h-54.2l23.3-71.6c1.2-3.7,6.4-3.7,7.6,0L-40.1,490.7z"/>
			</g>
		</g>
	</g>
</g>
<g id="Shapes">
	
		<linearGradient id="Large_1_" gradientUnits="userSpaceOnUse" x1="-129.9756" y1="419.2953" x2="-129.9756" y2="610.2953" gradientTransform="matrix(1 0 0 -1 0 1028)">
		<stop  offset="0" style="stop-color:#2D2A70"/>
		<stop  offset="0.646" style="stop-color:#3F4C94"/>
	</linearGradient>
	<path id="Large" class="st6" d="M-221.6,533c8.2,8.9,17.8,16.1,27.9,22.6c17.3,11.1,34.7,22.1,52.1,33.1
		c10.3,6.5,21.1,12.2,32.8,16.1c8.6,2.8,17.3,4.6,26.4,3.8c7.3-0.7,13.9-3,19.9-7.2c6.3-4.4,11.1-10.2,15.1-16.7
		c5.3-8.6,9-17.9,12-27.5c6.1-19.8,9.3-40.1,11.6-60.6c0.9-8.1,1.3-16.3,0.8-24.5c-0.4-7.3-1.5-14.5-3.7-21.5
		c-4.8-14.9-14.6-24.8-29.4-29.7c-5.6-1.9-18.5-3.3-24.4-3.1c-2.6,0-5.1-0.1-7.7,0c-6.9,0.3-13.9,0.7-20.8,1.2
		c-6.1,0.4-12.1,1-18.2,1.6c-4.5,0.4-9.1,1-13.6,1.6c-8.5,1-16.9,2.6-25.3,4.6c-13.6,3.3-26.7,7.9-38.5,15.6
		c-6.9,4.5-13.4,9.4-18.5,16c-8.4,10.8-12.8,23.1-13.7,36.7c-0.3,5.1,0.3,10.2,1.7,15.2C-232.7,519-227.8,526.4-221.6,533z"/>
	
		<linearGradient id="Large_Top_1_" gradientUnits="userSpaceOnUse" x1="-37.8162" y1="589.0673" x2="-64.3974" y2="576.5537" gradientTransform="matrix(1 0 0 -1 0 1028)">
		<stop  offset="0" style="stop-color:#1D73BA"/>
		<stop  offset="1" style="stop-color:#1E77BD"/>
	</linearGradient>
	<path id="Large_Top" class="st7" d="M-232.3,505.9c23.2,13.9,149.1,39.8,161.5,14.2c1.1-2.3,6.7-16.6,12.2-17.4
		c2.4-0.4,3-0.2,4.9-0.1c2.2,0.2,3.6,0.3,4.7,0.4c2.4,0.3,4.9,0.7,5.5,0.8c1.8,0.4,2.7,0.5,4.9,1.2c4.6,1.5,6.9,2.2,7.6,2.5
		c2.2,0.8,4,1.3,5.4,1.8c0.6-4.2,1.1-8.5,1.6-12.8c0.9-8.1,1.3-16.3,0.8-24.5c-0.4-7.3-1.5-14.5-3.7-21.5
		c-4.8-14.9-14.6-24.8-29.4-29.7c-5.6-1.9-18.5-3.3-24.4-3.1c-2.6,0-5.1-0.1-7.7,0c-6.9,0.3-13.9,0.7-20.8,1.2
		c-6.1,0.4-12.1,1-18.2,1.6c-4.5,0.4-9.1,1-13.6,1.6c-8.5,1-16.9,2.6-25.3,4.6c-13.6,3.3-26.6,7.9-38.5,15.6
		c-6.9,4.5-13.4,9.4-18.5,16c-8.4,10.8-12.8,23.1-13.7,36.7c-0.2,2.9-0.1,5.8,0.3,8.6C-234.8,504.4-233,505.5-232.3,505.9z"/>
	
		<linearGradient id="Small_1_" gradientUnits="userSpaceOnUse" x1="-230.9493" y1="525.4629" x2="-93.4003" y2="525.4629" gradientTransform="matrix(1 0 0 -1 0 1028)">
		<stop  offset="0" style="stop-color:#2E3284"/>
		<stop  offset="1" style="stop-color:#265BA7"/>
	</linearGradient>
	<path id="Small" class="st8" d="M-108.9,426.4c3,0,3.7,0,6.7,0c0.1,0,1.3,0.1,1.4,0.1c1.6,0.1,3.3,0.2,4.9,0.4
		c2.5,0.2,4.9,0.6,7.3,1c4.2,0.7,8.1,2,11.8,3.9c4.3,2.2,8,5.1,11.1,8.7c2.9,3.5,5,7.4,6.5,11.7c1.3,3.8,2.2,7.7,2.7,11.7
		c0.4,3,0.7,6,0.7,9c0,0.1,0,0.3,0.1,0.4c0,1.9,0,3.7,0,5.6c0,0.1-0.1,0.3-0.1,0.4c0,1,0,2-0.1,3c-0.1,2.5-0.3,4.9-0.6,7.4
		c-0.4,2.9-0.7,5.9-1.1,8.8c-0.4,2.8-0.8,5.6-1.2,8.4c-0.6,3.5-1.2,6.9-1.9,10.4c-1,5.2-2.8,10.3-4.2,15.3c-1.4,4.3-4.3,10-6.2,14.7
		c-2.1,5.1-5.2,8.3-8.2,12.9c-2.4,3.5-4.8,5.4-8.1,8.2c-3.3,2.8-7.3,5.5-11.4,6.9c-3.4,1.2-4.6,1.7-8.4,2.5c-1.8,0.5-6.5,1.1-7.6,1
		c-2.8,0.1-5-0.2-7.8-0.5c-6-0.7-13.3-2.3-19.2-5c-4.5-2.2-11.1-4.6-15.3-7.2c-12.9-7.8-25.7-15.7-38.6-23.5
		c-4-2.5-9.8-5.3-13.7-7.9c-5.7-3.8-11.1-6.9-16-11.7c-2.1-2.1-3.8-5-6-8.5c-1.7-2.7-3.3-7.6-4-11.9c-0.6-3.3-0.4-8.7-0.5-8.9
		c0-1.1,0.4-5.4,0.5-5.7c0.1-2.2,0.8-4,1.2-6.1c1.1-5.9,3.9-11.4,7-16.7c2.9-4.9,6.8-10,11.3-13.6c2.7-2.2,4.6-3.9,7.6-5.8
		c6.6-4.4,12.9-7.4,20.8-9.7c6.1-2,12.2-3.3,18.5-4.6c2.9-0.6,7.2-0.9,10.1-1.3c2.5-0.4,4.2-0.4,6.7-0.7c1.6-0.2,3.3-0.3,4.9-0.5
		c1.6-0.2,3-0.2,4.6-0.3c1.4-0.1,2.9-0.3,4.4-0.4c1.9-0.2,3.5,0,5.4-0.2c1.8-0.1,3.6-0.3,5.4-0.4c2.3-0.2,4.6-0.3,6.8-0.4
		c1.9-0.1,3.8-0.2,5.6-0.3c1.4-0.1,2.7-0.1,4.1-0.2C-110.6,426.5-109.1,426.5-108.9,426.4z"/>
	
		<linearGradient id="Small_Top_1_" gradientUnits="userSpaceOnUse" x1="-235.7934" y1="558.3064" x2="-55.6991" y2="558.3064" gradientTransform="matrix(1 0 0 -1 0 1028)">
		<stop  offset="0" style="stop-color:#2F2F80"/>
		<stop  offset="0.1215" style="stop-color:#2F3583"/>
		<stop  offset="0.3323" style="stop-color:#2E458E"/>
		<stop  offset="0.6071" style="stop-color:#2C5EA1"/>
		<stop  offset="0.9321" style="stop-color:#2780C0"/>
		<stop  offset="1" style="stop-color:#2289CA"/>
	</linearGradient>
	<path id="Small_Top" class="st9" d="M-235.2,503.1c73,18.4,144.1,6.9,177-0.5c0.2-1.4,0.4-2.9,0.6-4.3c0.4-2.9,0.8-5.9,1.1-8.8
		c0.3-2.5,0.5-4.9,0.6-7.4c0-1,0.1-2,0.1-3c0-0.1,0-0.3,0.1-0.4c0-1.9,0-3.7,0-5.6c0-0.1-0.1-0.3-0.1-0.4c0-3-0.3-6-0.7-9
		c-0.5-4-1.4-7.9-2.7-11.7c-1.5-4.2-3.6-8.2-6.5-11.7c-3-3.6-6.8-6.5-11.1-8.7c-3.7-1.9-7.6-3.3-11.8-3.9c-2.4-0.4-4.9-0.8-7.3-1
		c-1.6-0.1-3.3-0.2-4.9-0.4c-0.1,0-1.3,0-1.4-0.1c-3,0-3.7,0-6.7,0c-0.2,0-1.7,0.1-2,0.1c-1.4,0.1-2.7,0.1-4.1,0.2
		c-1.9,0.1-3.8,0.2-5.6,0.3c-2.3,0.1-4.6,0.3-6.8,0.4c-1.8,0.1-3.6,0.3-5.4,0.4c-1.9,0.2-3.5,0-5.4,0.2c-1.4,0.1-2.9,0.3-4.4,0.4
		c-1.6,0.2-3.1,0.2-4.6,0.3c-1.6,0.2-3.3,0.3-4.9,0.5c-2.5,0.3-4.2,0.3-6.7,0.7c-2.9,0.5-7.2,0.8-10.1,1.3
		c-6.3,1.2-12.4,2.6-18.5,4.6c-7.9,2.3-14.3,5.3-20.8,9.7c-3,1.9-4.9,3.6-7.6,5.8c-4.5,3.6-8.4,8.8-11.3,13.6
		c-3.1,5.2-5.9,10.8-7,16.7c-0.4,2.1-1.1,4-1.2,6.1c0,0.3-0.5,4.6-0.5,5.7c0.1,0.3-0.1,5.6,0.5,8.9
		C-235.3,502.6-235.3,502.8-235.2,503.1z"/>
</g>
<g id="NYC_Letters">
	<path id="C" class="st10" d="M-113.3,489c0.3-0.3,0.5-0.6,0.8-1.1c-0.6,0-1-0.1-1.3,0c-3.7,0-7.3,0-11,0c-0.8,0-1.4,0.2-1.8,0.9
		c-2.4,3.1-4.7,6.2-7.1,9.3c-0.8,1-1.6,2-2.4,3.1c-3.4-4.2-6.7-8.2-10-12.3c-0.5-0.6-1-0.9-1.8-0.9c-6.9,0-13.7,0-20.6,0
		c-0.4,0-0.8,0-1.2,0c0,8.4,0,16.6,0,25.2c-0.5-0.5-1-0.8-1.3-1.1c-5.4-7.7-10.8-15.4-16.2-23.2c-0.5-0.7-0.9-0.9-1.8-0.9
		c-5.2,0-10.4,0-15.6,0c-0.4,0-0.7,0-1.1,0.1c0,0.3-0.1,0.5-0.1,0.8c0,10.5,0,21.1,0,31.6c0,0.7,0.2,1,1,1c2.9,0,5.8,0,8.7,0
		c0.3,0,0.5-0.1,0.7-0.1c0-8.3,0-16.5,0-24.8c0.1-0.1,0.2-0.2,0.2-0.2c0.4,0.4,0.9,0.7,1.2,1.1c5.4,7.7,10.8,15.3,16.2,23
		c0.5,0.7,1,1,1.9,1c5.1,0,10.1,0,15.2,0c1.2,0,1.4-0.4,1.4-1.5c0-9.7,0-19.5,0-29.2c0-0.4,0-0.8,0-1.3c0.3,0.2,0.4,0.2,0.4,0.3
		c5.7,6.4,11.4,12.8,17.1,19.3c0.3,0.4,0.5,1,0.5,1.6c0.1,3.3,0.1,6.5,0,9.7c0,0.9,0.2,1.1,1.1,1.1c2-0.1,4,0,6,0c1.2,0,2.3,0,3.6,0
		c0-0.5,0-0.9,0-1.3c0-3,0.1-6,0-8.9c0-1.1,0.3-1.9,1-2.7C-124.3,501.9-118.8,495.4-113.3,489z"/>
	<path id="NY" class="st10" d="M-80.9,508.2c-1.1,0-1.6,0.2-1.6,1.5c-0.1,2.5-1,3.3-3.5,3.3c-3.5,0.1-7.1,0.2-10.6,0.2
		c-1.6,0-3.2-0.2-4.8-0.4c-1.3-0.2-2.2-1.1-2.4-2.4c-0.5-3.6-0.6-7.2,0-10.8c0.3-2.3,1.4-3.3,3.6-3.3c4.6-0.1,9.2-0.1,13.8,0
		c2.7,0.1,2.9,0.4,3.4,3c0,0.3,0.6,0.7,0.9,0.7c2.9,0,5.9,0,8.8,0c0.7,0,0.9-0.3,0.9-0.9c0-1.2,0-2.4,0-3.5
		c-0.3-4.5-2.1-6.7-6.6-7.6c-1.8-0.4-3.8-0.5-5.7-0.6c-3.9-0.1-7.9-0.1-11.8,0c-3.5,0.1-6.9,0.3-10.4,0.7c-4.9,0.6-7.1,3.1-7.5,8
		c-0.4,6-0.5,11.9,0.1,17.8c0.4,3.7,2.4,6,6,6.9c1.6,0.4,3.3,0.6,5,0.7c5.5,0.2,11,0.3,16.5,0.2c3.3-0.1,6.6-0.5,9.8-1.2
		c2.6-0.5,4.3-2.4,4.6-5.1c0.3-2.3,0.4-4.7,0.6-7.2C-75.1,508.2-78,508.2-80.9,508.2z"/>
</g>
<text transform="matrix(1 0 0 1 39 551)" class="st2 st11 st12">Git</text>
</svg>
